<svg xmlns="http://www.w3.org/2000/svg" width="510.7" height="456" viewBox="0 0 510.7 456">
  <defs>
    <style>
      .cls-1, .cls-32 {
        isolation: isolate;
      }

      .cls-19, .cls-2 {
        fill: #2988d7;
      }

      .cls-2 {
        opacity: 0.1;
        mix-blend-mode: multiply;
      }

      .cls-3 {
        fill: #16558e;
      }

      .cls-4 {
        fill: #205fa3;
      }

      .cls-5 {
        fill: #fff;
      }

      .cls-6 {
        fill: #eaeaea;
      }

      .cls-7 {
        fill: #bcbcbc;
      }

      .cls-8 {
        fill: #fcd2c5;
      }

      .cls-9 {
        fill: #6f8593;
      }

      .cls-10 {
        fill: #d5daeb;
      }

      .cls-11 {
        fill: #738598;
      }

      .cls-12 {
        fill: #181b1e;
      }

      .cls-13 {
        fill: #d3e1ea;
      }

      .cls-14 {
        fill: #3c415e;
      }

      .cls-15 {
        fill: #474d6f;
      }

      .cls-16 {
        fill: #2b2b2b;
      }

      .cls-17 {
        fill: #fab81f;
      }

      .cls-18 {
        fill: #faf9f9;
      }

      .cls-20 {
        fill: #3a3a3a;
      }

      .cls-21 {
        fill: #d4d5d8;
      }

      .cls-22 {
        fill: #1b283b;
      }

      .cls-23 {
        fill: #0c0c0c;
      }

      .cls-24 {
        fill: #524f63;
      }

      .cls-25 {
        fill: #f7b75d;
      }

      .cls-26 {
        fill: #f29127;
      }

      .cls-27 {
        fill: #393d63;
      }

      .cls-28 {
        fill: #eff2f7;
      }

      .cls-29 {
        fill: #ddd;
      }

      .cls-30 {
        fill: none;
        stroke: #000;
        stroke-miterlimit: 10;
        stroke-width: 0.78px;
      }

      .cls-31 {
        fill: #8f969b;
      }

      .cls-32 {
        fill: #17171b;
        opacity: 0.1;
      }

      .cls-33 {
        fill: #04161e;
      }

      .cls-34 {
        fill: #7a9fc4;
      }
    </style>
  </defs>
  <title>illu-header-recrutement</title>
  <g class="cls-1">
    <g id="Calque_2" data-name="Calque 2">
      <g id="Calque_2-2" data-name="Calque 2">
        <g>
          <path class="cls-2" d="M510.7,426.62c0,16.22-111.86,29.38-249.84,29.38S11,442.84,11,426.62s111.86-29.4,249.84-29.4S510.7,410.38,510.7,426.62Z"/>
          <g>
            <g>
              <g>
                <path class="cls-3" d="M58.42,119.25H386a5.49,5.49,0,0,1,5.49,5.49v228.1a5.49,5.49,0,0,1-5.49,5.49H59.39a6.46,6.46,0,0,1-6.46-6.46V124.74A5.49,5.49,0,0,1,58.42,119.25Z" transform="translate(444.41 477.58) rotate(180)"/>
                <path class="cls-4" d="M156.38,423.54H286.79a21.73,21.73,0,0,0-21.73-21.74H178.12a21.74,21.74,0,0,0-21.74,21.74"/>
                <polygon class="cls-3" points="183.55 401.8 259.62 401.8 248.76 358.33 194.42 358.33 183.55 401.8"/>
                <path class="cls-5" d="M64,314.86H379.17v-178a6.79,6.79,0,0,0-6.79-6.79H70.8A6.79,6.79,0,0,0,64,136.9v178Z"/>
              </g>
              <g>
                <path class="cls-6" d="M325.18,86.54v228.6H150.82V86.54c0-13.71-7.45-24.92-16.56-24.92H308.62C317.73,61.62,325.18,72.83,325.18,86.54Z"/>
                <g>
                  <rect class="cls-7" x="197.79" y="93.65" width="79.52" height="79.52" transform="translate(475.11 266.82) rotate(180)"/>
                  <g>
                    <path class="cls-8" d="M219.15,131.22l1.38,5.53a1.49,1.49,0,0,0,1.43,1.11h0a1.47,1.47,0,0,0,1.46-1.29l.71-5.66a2.54,2.54,0,0,0-2.52-2.85h0A2.54,2.54,0,0,0,219.15,131.22Z"/>
                    <path class="cls-8" d="M255.74,131.22l-1.38,5.53a1.47,1.47,0,0,1-1.43,1.11h0a1.47,1.47,0,0,1-1.46-1.29l-.71-5.66a2.54,2.54,0,0,1,2.52-2.85h0A2.54,2.54,0,0,1,255.74,131.22Z"/>
                    <polygon class="cls-8" points="226.42 152.56 226.42 143.99 248.47 143.99 248.47 152.56 237.45 162.36 226.42 152.56"/>
                    <path class="cls-9" d="M209.38,156.57,224.53,153a2.77,2.77,0,0,0,.64-.26l12.28,7.16,11.79-7.51a2.56,2.56,0,0,0,1.12.61l15.16,3.56a4.9,4.9,0,0,1,3.77,4.77v9.6a2.45,2.45,0,0,1-2.45,2.45H208.05a2.45,2.45,0,0,1-2.45-2.45v-9.6A4.9,4.9,0,0,1,209.38,156.57Z"/>
                    <path class="cls-8" d="M253.37,115.81,252.3,139.3a7.32,7.32,0,0,1-2.93,5.54l-5.06,3.8a7.33,7.33,0,0,1-4.41,1.47H235a7.31,7.31,0,0,1-4.41-1.47l-5.07-3.8a7.32,7.32,0,0,1-2.93-5.54l-1.07-23.49Z"/>
                    <g>
                      <path class="cls-9" d="M260.3,165.44l7.94-7.13a4.9,4.9,0,0,1,1.05,3v12h-11V170A6.12,6.12,0,0,1,260.3,165.44Z"/>
                      <path class="cls-9" d="M214.59,165.44l-7.94-7.13a4.9,4.9,0,0,0-1.05,3v12h11V170A6.12,6.12,0,0,0,214.59,165.44Z"/>
                    </g>
                    <polygon class="cls-10" points="234.38 173.38 240.51 173.38 239.74 162.36 235.15 162.36 234.38 173.38"/>
                    <path class="cls-11" d="M234.38,159.91h6.13v2.31a1.37,1.37,0,0,1-1.37,1.37h-3.39a1.38,1.38,0,0,1-1.37-1.37v-2.31Z"/>
                    <g>
                      <path class="cls-10" d="M248.64,149.83l-11.19,10.08a42.24,42.24,0,0,1,7,4.77,1.56,1.56,0,0,0,2.43-.55l4.91-10.79-1.31-3.27A1.22,1.22,0,0,0,248.64,149.83Z"/>
                      <path class="cls-10" d="M226.25,149.83l11.2,10.08a42,42,0,0,0-7,4.77,1.56,1.56,0,0,1-2.43-.55l-5.26-10.68,1.66-3.38A1.22,1.22,0,0,1,226.25,149.83Z"/>
                    </g>
                    <path class="cls-12" d="M230,107.7l-1.15,8.11c-5.24,1-6,9.28-6.1,11.63,0,.42-.5,4.91-.5,4.91s-1.44-4-2.94-7.09a13.21,13.21,0,0,1-1.19-7.25C218.81,112.34,221.27,104.44,230,107.7Z"/>
                    <path class="cls-12" d="M242.75,102.85a16.35,16.35,0,0,1,12.75,10.28,27.9,27.9,0,0,1,1.23,3.8,13.6,13.6,0,0,1-.92,8.15c-1.21,2.82-3.25,7.27-3.25,7.27s.53-10.14-4.09-12.86c-4.29-2.53-8-1.23-11.87-1.23-10.25,0-13.13-3.86-12.63-8.57.26-2.44,4-7.51,13.48-7.35A40.29,40.29,0,0,1,242.75,102.85Z"/>
                  </g>
                  <rect class="cls-11" x="177.75" y="188.54" width="121.62" height="6.01" transform="translate(477.11 383.09) rotate(180)"/>
                  <rect class="cls-11" x="177.75" y="201.9" width="121.62" height="6.01" transform="translate(477.11 409.82) rotate(180)"/>
                  <rect class="cls-11" x="177.75" y="215.27" width="121.62" height="6.01" transform="translate(477.11 436.55) rotate(180)"/>
                  <rect class="cls-11" x="177.75" y="228.63" width="121.62" height="6.01" transform="translate(477.11 463.27) rotate(180)"/>
                  <rect class="cls-11" x="177.75" y="241.99" width="121.62" height="6.01" transform="translate(477.11 490) rotate(180)"/>
                  <rect class="cls-11" x="177.75" y="255.36" width="121.62" height="6.01" transform="translate(477.11 516.73) rotate(180)"/>
                  <rect class="cls-11" x="177.75" y="268.72" width="121.62" height="6.01" transform="translate(477.11 543.46) rotate(180)"/>
                  <rect class="cls-11" x="230.77" y="282.09" width="68.59" height="6.01" transform="translate(530.14 570.19) rotate(180)"/>
                </g>
              </g>
            </g>
            <g>
              <g>
                <polygon class="cls-8" points="93.11 64.32 95.7 61.16 96.7 51.01 88.81 50.24 87.59 62.64 89.4 67.37 93.11 64.32"/>
                <path class="cls-8" d="M124.61,77.27l2.27,2.2a12,12,0,0,1,3.05,4.89l8.18,25a8,8,0,0,1,1.79,3c1,3.08.24,6.15-1.81,6.85-1.74.59-3.8-.71-5-3-1,.88-2.14,1.22-2.73.74-.76-.61-.37-2.33.86-3.84a6.24,6.24,0,0,1,.84-.86,7.51,7.51,0,0,1,.1-1.18L123.25,89a12.07,12.07,0,0,0-4.6-5.58Z"/>
                <path class="cls-8" d="M49.88,35.25c1.39-.43,3,.52,4.11,2.22.77-.76,1.59-1.1,2.16-.79.85.47.78,2.22-.15,3.93a9.16,9.16,0,0,1-.57.86,7.65,7.65,0,0,1-.08,2.21l5.74,22.05.38-.24,2.74,11-5.58,1.86A3.9,3.9,0,0,1,53.53,75l-2.9-29.14a7.56,7.56,0,0,1-2.57-3.91C47.12,38.83,47.93,35.83,49.88,35.25Z"/>
                <path class="cls-13" d="M75.2,72.81c.68,4.62-7.79,27.13-7.79,27.13l28,10.16c8.9-9.37,11.34-34.18,11.34-34.18l9.87,9.5h0l8-8.15C120,72.75,113,65.8,110.36,62.61,106.3,57.65,96,57.78,96,57.78L89.73,64l-1.59-7-7.22-.71a12,12,0,0,0-7.53,1.77L61.47,65.49,63.88,78Z"/>
                <path class="cls-8" d="M85.51,50.44a6.53,6.53,0,0,0,5,2c3.88-.17,10.34-1.25,12.42-6.5,3-7.67-3.07-15.11-6.34-16.57s-11.28-1.11-13.3,7.8C81.53,44.82,82,46.81,85.51,50.44Z"/>
                <path class="cls-12" d="M89.27,34A19.73,19.73,0,0,1,86,32.15a4.21,4.21,0,0,1,1.46-7.6,19.77,19.77,0,0,1,3.28-.38c5-.25,14.88-.41,16.57,5.54a5.69,5.69,0,0,1,3.64,5.76c-.32,6.28-2.9,8.13-9,12.26,0,0,2-6.21,0-9.3s-3.72,3-3.72,3S99.28,36.38,89.27,34Z"/>
                <path class="cls-14" d="M67.52,98.81,33.79,96a6.3,6.3,0,0,0-6.61,4.63L16,142.14l4.4,1.57,18.43-36.9,19,4.14,24.57-6.69Z"/>
                <path class="cls-15" d="M96,109.45s-7.55,13.63-36.87,10.74l-2.06,55.6-5.63-.56-6.78-57.79a6.3,6.3,0,0,1,4.8-6.86l30.11-7.16Z"/>
                <path class="cls-16" d="M57.09,175.79l.08,6A3.77,3.77,0,0,1,53,185.63l-15.95-1.57a.8.8,0,0,1-.34-1.48l14.55-8.9Z"/>
                <path class="cls-16" d="M20.51,142.58l.07,6a3.78,3.78,0,0,1-4.15,3.82L.73,150.88a.8.8,0,0,1-.3-1.51L16.11,141Z"/>
              </g>
              <g>
                <path class="cls-14" d="M55.71,13.68l11.77,4.4a1,1,0,0,1,.61,1.33L63.21,32.47a1,1,0,0,1-1.33.61L50.1,28.68a1,1,0,0,1-.61-1.33l4.87-13A1,1,0,0,1,55.71,13.68Z"/>
                <path class="cls-17" d="M69.16,22.32A1.43,1.43,0,0,1,70,24.16l-2.26,6A1.43,1.43,0,0,1,65.9,31L64,30.33l3.26-8.72Z"/>
                <polygon class="cls-17" points="31.18 27.54 49.6 27.06 54.24 14.63 40.66 2.16 31.18 27.54"/>
                <path class="cls-14" d="M39.9.09a1.43,1.43,0,0,1,.85,1.84L31.08,27.8a1.43,1.43,0,0,1-2.69-1L38.07.9A1.46,1.46,0,0,1,39.9.09Z"/>
                <polygon class="cls-17" points="43.52 42.28 49.27 44.43 60.72 32.69 51.69 29.31 43.52 42.28"/>
                <g>
                  <path class="cls-11" d="M57.23,17.28,64,19.8a.78.78,0,0,1,.39,1.05.82.82,0,0,1-1,.55l-6.75-2.52a.8.8,0,0,1-.39-1.06A.82.82,0,0,1,57.23,17.28Z"/>
                  <path class="cls-11" d="M55.71,21.33l6.75,2.52a.8.8,0,0,1,.39,1.06.82.82,0,0,1-1,.54l-6.75-2.52a.78.78,0,0,1-.38-1.05A.82.82,0,0,1,55.71,21.33Z"/>
                  <path class="cls-11" d="M54.19,25.42l6.74,2.52A.8.8,0,0,1,61.32,29a.82.82,0,0,1-1,.54L53.59,27a.86.86,0,0,1,.6-1.6Z"/>
                </g>
                <path class="cls-11" d="M35.16,8.69,31.9,17.41a4.66,4.66,0,0,1,3.26-8.72Z"/>
              </g>
            </g>
            <g>
              <path class="cls-17" d="M274.35,4.11h99.9a7,7,0,0,1,7,7v57a7,7,0,0,1-7,7H305.38L289,91.53V75.15H274.35a7,7,0,0,1-7-7v-57A7,7,0,0,1,274.35,4.11Z"/>
              <g>
                <path class="cls-18" d="M337,42.1a4,4,0,1,0,4-4A4,4,0,0,0,337,42.1Z"/>
                <path class="cls-18" d="M320.27,42.1a4,4,0,1,0,4-4A4,4,0,0,0,320.27,42.1Z"/>
                <path class="cls-18" d="M303.55,42.1a4,4,0,1,0,4-4A4,4,0,0,0,303.55,42.1Z"/>
              </g>
            </g>
          </g>
          <g>
            <g>
              <path class="cls-19" d="M178.63,309.54l-3.42-66.67s0,0,0,0c-.57,0-17.23-1-22.24-1-2.78,0-7.53,1.32-11.28,2.52-3.53,1.13-6.45,1-8.16,4.31L105.4,302.54s0,0,0,0l17.24,1.64h0l5.74-6.57s0,0,0,0l-2.91-4.42s0,0,0,0L136,268.5s0,0,0,0l-.17,41.86,0,0,42.75-.83S178.63,309.55,178.63,309.54Z"/>
              <path class="cls-3" d="M135.64,258.58,117,292.26l5.81,6.8a10.2,10.2,0,0,0,4.6-.25l1-1.18-2.93-4.44L136,268.41Z"/>
              <path class="cls-8" d="M150.5,296.07c-.72-.24-6.49-3.6-10.82-3.6s-9.62,4.57-9.62,4.57-.73,2.4,2.16,1.92,4.81-.72,4.81-.72-5.05,2.64-1.68,3.13,17.56,0,17.56,0Z"/>
              <path class="cls-20" d="M149.44,305.86H93.87v-4.08h55.57a2,2,0,0,1,2,2h0A2,2,0,0,1,149.44,305.86Z"/>
              <path class="cls-21" d="M134.19,305.86H80.6a5.22,5.22,0,0,1-5-3.89l-9.46-35.63a5.23,5.23,0,0,1,5-6.57h46.8a5.23,5.23,0,0,1,5,3.89Z"/>
              <path class="cls-8" d="M151.23,233.53c.48,1,3.84,14.19,3.84,14.19a4.28,4.28,0,0,0,4.09,1.93c2.89-.24,4.09-4.33,4.09-4.33l-5.05-16.6Z"/>
              <path class="cls-8" d="M169,225.38c0,9.12-9.68,19.2-18.79,19.2S136,234.5,136,225.38a16.51,16.51,0,0,1,33,0Z"/>
              <polygon class="cls-3" points="177.24 256.77 178.29 309.52 153.48 309.25 177.24 256.77"/>
              <path class="cls-19" d="M175.2,242.85l2.3,49.71-23,4.68,3.13,6,32.89,1.91L186.05,256A14.61,14.61,0,0,0,178,244.21Z"/>
              <polygon class="cls-8" points="150.5 296.07 155.07 296.56 159.16 303.29 151.48 303.82 150.5 296.07"/>
              <path class="cls-22" d="M127.6,318.58,86.94,328.92l20.69,81.32,7.13-3.57-6.06-69.9,36.37-11.42-21,12.13.36,66.34h6.42s17.83-64.92,19.62-64.92,31.74-20,31.74-20Z"/>
              <polygon class="cls-23" points="85.75 416.64 114.02 414.63 114.8 405.72 84.58 412.6 85.75 416.64"/>
              <polygon class="cls-23" points="108.7 421.65 114.4 422.37 130.45 416.3 130.81 403.82 124.39 403.82 121.53 411.67 112.88 416.89 108.7 421.65"/>
              <path class="cls-23" d="M135.45,219.52c-.64,1.18-1.3,2.56-.82,3.83.58,1.54,2.5,2,4.14,2.2a65.64,65.64,0,0,0,8.52.44,26.55,26.55,0,0,0,5.63-.56,33.21,33.21,0,0,0,8.44-3.76c1.91-1.08,4-2.45,4.38-4.62s-1.21-4.11-2.67-5.73a18.68,18.68,0,0,0-2.67-2.59,11.62,11.62,0,0,0-8.67-1.78C144.3,208.15,138.92,213.16,135.45,219.52Z"/>
              <path class="cls-23" d="M162.45,224.86a1.78,1.78,0,0,1,2.21-1,2.53,2.53,0,0,1,1.58,2.05,4.58,4.58,0,0,1-.51,2.63,6.17,6.17,0,0,0-.53,1.21,4.58,4.58,0,0,0-.07,1.11c0,1.61.05,3.23.08,4.84,1.33-.51,2.1-1.86,2.77-3.12,1.48-2.76,3-5.7,2.82-8.82-.14-2.59-1.43-5-2.73-7.19a3.88,3.88,0,0,0-1-1.3,2.68,2.68,0,0,0-2.28-.25,8.17,8.17,0,0,0-2.07,1.13l-1.93,1.31a4.6,4.6,0,0,0-1.61,1.55c-.61,1.22.24,1.74,1,2.48C160.47,221.82,159.83,229.84,162.45,224.86Z"/>
              <g>
                <polygon class="cls-24" points="246.97 258.42 245.45 259.77 250.75 265.98 246.97 258.42"/>
                <path class="cls-25" d="M359.73,309.56l-3.42-66.71s-17.15-3.61-22.26-3.61c-2.78,0-7.53,1.32-11.28,2.52a14.07,14.07,0,0,0-8.16,6.9l-28.13,53.91,17.29,1.64,5.76-6.58-2.93-4.44,10.51-24.78-.17,42Z"/>
                <path class="cls-8" d="M357.44,223.55a16.5,16.5,0,0,1-16.5,16.5c-5.05,0-8.55-5.24-11.57-8.8-2.45-2.88-4.37-3.7-4.37-7.77,0-9.11,6.82-16.44,15.94-16.44A16.51,16.51,0,0,1,357.44,223.55Z"/>
                <polygon class="cls-22" points="315.29 305.86 257.68 305.86 245.45 259.77 303.06 259.77 315.29 305.86"/>
                <polygon class="cls-5" points="315.29 305.86 259.48 305.86 246.97 258.42 303.44 259.77 315.29 305.86"/>
                <rect class="cls-24" x="258.15" y="302.52" width="39.5" height="3.34"/>
                <path class="cls-26" d="M336.53,298.1l22.07-10.55L356.78,252l-3.82.23-28.61,30s-4.27,11.14-7.38,19.92l0,8.24,29.67-.57Z"/>
                <path class="cls-27" d="M308.7,318.58,268,328.92l20.68,81.32,7.14-3.57-6.07-69.9,36.38-11.42-21,12.13.36,66.34h6.42s17.83-64.92,19.61-64.92,31.74-20,31.74-20Z"/>
                <polygon class="cls-23" points="266.84 416.64 295.12 414.63 295.9 405.72 265.67 412.6 266.84 416.64"/>
                <path class="cls-28" d="M330.55,246.21a44.68,44.68,0,0,0,1.78,9.44,3.5,3.5,0,0,0,1,1.82c1.15.89,2.81.14,4-.69a28.51,28.51,0,0,0,5.62-5.07,10,10,0,0,0,2.27-4.25,4.71,4.71,0,0,0-1.3-4.47c-1.9-1.64-6-1.58-8.39-1.64C332.17,241.28,330.27,242.67,330.55,246.21Z"/>
                <polygon class="cls-23" points="289.79 421.65 295.5 422.37 311.55 416.3 311.91 403.82 305.49 403.82 302.63 411.67 293.98 416.89 289.79 421.65"/>
                <path class="cls-8" d="M334.72,231.87l-1.22,13.91s1,5.85,4.4,4.88a5.18,5.18,0,0,0,3.9-3.66l1.47-16.6Z"/>
                <path class="cls-12" d="M347.08,218.2a19.42,19.42,0,0,0,7.61-1.41c2.34-1.13,4.3-3.43,4.26-6s-2.72-5-5.2-4.25c-.56.18-1.07.51-1.65.65a5.55,5.55,0,0,1-2.72-.33c-6.67-2-14.14-3.28-20.37-.18a6.34,6.34,0,0,0-2.9,2.48,7.65,7.65,0,0,0-.67,2.92q-.37,4-.49,8.11c1.8-1,3.59-2.14,5.47-3s3,0,5,.39A48.25,48.25,0,0,0,347.08,218.2Z"/>
                <path class="cls-12" d="M331.58,213.79a5.93,5.93,0,0,0-4.82,1.34,16.38,16.38,0,0,0-2.26,7,13.65,13.65,0,0,1,.34,2.65,6.89,6.89,0,0,0,.56,2.3c.94,1.43,2.46,2.4,4,4.17l.18.22c1.6-2.76,4.2-9.06,4.69-9.69.74-1,3.14-3.88,2.71-5.17S332.76,214,331.58,213.79Z"/>
                <path class="cls-8" d="M331.6,220.51a1.57,1.57,0,0,0-.46-.5,1.62,1.62,0,0,0-.82-.14c-1.08,0-2.33.08-3,.94a3.2,3.2,0,0,0-.48,1.28,11.29,11.29,0,0,0-.15,3.28c.17,1.68,1,3.56,2.62,3.94a3.16,3.16,0,0,0,2.77-.85C334.67,226.12,333.29,223,331.6,220.51Z"/>
                <path class="cls-12" d="M352.46,229.13A5.66,5.66,0,0,1,355,229a2.09,2.09,0,0,1,1.69,1.74,5.41,5.41,0,0,1-.19,1.25,7.83,7.83,0,0,0,.76,3.83c1,2.7,1.64,5.92,0,8.29-1.54,2.22-4.57,2.84-7.28,2.71a20.35,20.35,0,0,1-18-13.74,13.53,13.53,0,0,1-.27-8.25c.27-.81,1-1.73,1.76-1.45a10.09,10.09,0,0,0,5.27,7.35C343.73,233.23,347.72,230.24,352.46,229.13Z"/>
                <path class="cls-22" d="M247.82,259.09l55.11,1.32,11.52,44.8H260l-12.16-46.12m-.85-.67,12.51,47.44h55.81l-11.85-46.09L247,258.42Z"/>
                <g>
                  <polygon class="cls-29" points="255.22 276.08 304.81 277.49 301.86 267.99 252.27 266.58 255.22 276.08"/>
                  <g>
                    <polygon class="cls-5" points="255.45 269.89 265.74 270.18 265.31 268.79 255.02 268.5 255.45 269.89"/>
                    <polygon class="cls-5" points="270.86 270.32 293.38 270.96 292.95 269.58 270.43 268.94 270.86 270.32"/>
                    <polygon class="cls-5" points="296.02 271.04 300.7 271.17 300.27 269.78 295.59 269.65 296.02 271.04"/>
                    <polygon class="cls-5" points="285.88 272.93 301.38 273.37 300.95 271.98 285.44 271.54 285.88 272.93"/>
                    <polygon class="cls-5" points="256.13 272.08 259.84 272.19 259.41 270.8 255.7 270.7 256.13 272.08"/>
                    <polygon class="cls-5" points="261.74 272.24 282.22 272.83 281.79 271.44 261.31 270.86 261.74 272.24"/>
                    <polygon class="cls-5" points="256.81 274.28 269.15 274.63 268.72 273.24 256.38 272.89 256.81 274.28"/>
                    <polygon class="cls-5" points="271.64 274.7 302.06 275.57 301.63 274.18 271.21 273.31 271.64 274.7"/>
                  </g>
                </g>
                <path class="cls-5" d="M337.37,305.86H258.15v-3.34h79.22a1.67,1.67,0,0,1,1.67,1.67h0A1.67,1.67,0,0,1,337.37,305.86Z"/>
                <path class="cls-22" d="M297.27,305.86H258.15v-3.34h39.12a1.67,1.67,0,0,1,1.67,1.67h0A1.67,1.67,0,0,1,297.27,305.86Z"/>
                <path class="cls-25" d="M356.31,242.85,341.9,281l-36.75,4.89,1.45,7.35,47-1.54,12.7-33.49a8,8,0,0,0,.23-5.16,14.66,14.66,0,0,0-7.5-8.79Z"/>
                <path class="cls-8" d="M305.15,285.84l-19.82-10.59a2.15,2.15,0,0,0,.5,2.88c1.57,1.31,6.59,5,6.59,5V286c1.65,5.41,6.76,8,12.39,7.34l1.79-.19Z"/>
              </g>
              <g>
                <circle cx="136.06" cy="416.49" r="4.61"/>
                <circle cx="191.6" cy="416.49" r="4.62"/>
                <circle cx="162.65" cy="416.49" r="4.61"/>
                <path class="cls-30" d="M136.06,416.49V414.1a9.66,9.66,0,0,1,9.67-9.67h18.15v-47"/>
                <path class="cls-30" d="M191.09,416.49V414.1a9.66,9.66,0,0,0-9.67-9.67H163.26v-47"/>
                <line class="cls-30" x1="162.65" y1="416.49" x2="162.65" y2="404.43"/>
                <rect x="159.38" y="357.82" width="6.55" height="26.53"/>
                <rect x="157.74" y="380.83" width="10.24" height="23.35"/>
              </g>
              <g>
                <circle cx="313.07" cy="416.49" r="4.61"/>
                <circle cx="368.62" cy="416.49" r="4.61"/>
                <circle cx="339.67" cy="416.49" r="4.61"/>
                <path class="cls-30" d="M313.07,416.49V414.1a9.67,9.67,0,0,1,9.68-9.67H340.9v-47"/>
                <path class="cls-30" d="M368.11,416.49V414.1a9.67,9.67,0,0,0-9.68-9.67H340.28v-47"/>
                <line class="cls-30" x1="339.67" y1="416.49" x2="339.67" y2="404.43"/>
                <rect x="336.39" y="357.82" width="6.55" height="26.53"/>
                <rect x="334.76" y="380.8" width="10.24" height="23.35"/>
              </g>
              <g>
                <rect class="cls-31" x="61.77" y="310.8" width="316.86" height="50.2"/>
                <rect class="cls-7" x="62.22" y="311.19" width="5.33" height="127.99"/>
                <rect class="cls-7" x="376.88" y="311.19" width="5.33" height="127.99"/>
                <polygon class="cls-32" points="376.88 340.44 61.38 311.12 376.88 311.12 376.88 340.44"/>
                <rect class="cls-7" x="49.42" y="305.86" width="344.52" height="8.53"/>
              </g>
            </g>
            <polygon class="cls-29" points="282.59 294.93 261.31 294.59 256.86 279.48 278.14 279.82 282.59 294.93"/>
          </g>
          <g>
            <path class="cls-33" d="M424.88,423.87c.74-.88,1.65-2.25,1.65-2.25l4.25,2.37s.35.46.13,1.81a3.46,3.46,0,0,1-.17,2.81c-.44.75-3.26,1.9-4.49,2.3a14.19,14.19,0,0,1-5,.69c-2.09-.08-4.65-1.17-4.65-2.39C416.57,426.8,423.44,425.57,424.88,423.87Z"/>
            <path class="cls-8" d="M425.3,421.49l5.71,1a18.3,18.3,0,0,1-.1,3.29s-2.65.94-3.56.44a7.13,7.13,0,0,1-2.47-2.37A2.06,2.06,0,0,0,425.3,421.49Z"/>
            <path class="cls-4" d="M443,285.05v26.72c-2,1.57-6.91,25.48-10.51,50.69-4.17,29.2-.88,60.15-.88,60.15-2.08,2.29-6.22.05-6.27-.18a370.45,370.45,0,0,1-10.52-60.15c-3-36.5-.72-76.63-.31-79.56C417.93,284.21,432.78,285.72,443,285.05Z"/>
            <path class="cls-8" d="M367.5,287.43a11,11,0,0,0,3.29-.14c-1.15.43-.78,1.09-1.92,1.71-.5.11-2.66-.62-2.6-1.14C366.29,287.06,366.91,287.33,367.5,287.43Z"/>
            <path class="cls-8" d="M363.82,291.37c.19-.14,3-2.09,4.37-2.82a27.54,27.54,0,0,1,3.46-1.61,27.67,27.67,0,0,1,3.37,4.37c-1.88,1.06-8,3.89-8.12,4-2.18,1.58-3.2,1.24-3.12.48,0-.19-1.77.37-1.85-.37a.87.87,0,0,1-.81-.55,2.82,2.82,0,0,1,.3-1.71A18.69,18.69,0,0,1,363.82,291.37Z"/>
            <path class="cls-8" d="M401.11,262.37c2-.59,5-.18,5.82,3.88.88,4.43-22.64,20.24-32.67,25.46a21.13,21.13,0,0,0-3-4.62c6.16-3,23.4-20.42,28.71-24.19A4,4,0,0,1,401.11,262.37Z"/>
            <path class="cls-8" d="M404.83,227.89c.38-1,12.26,3,13.95,4.37,3.9,3.25-7.15,28-12.57,36.11-2.06,3.07-11,4.83-7.81-6.34C401,252.92,402.75,233.55,404.83,227.89Z"/>
            <path class="cls-34" d="M400.47,243.44c1-6.72,2-13.06,3.08-16a1.6,1.6,0,0,1,1.05-1c2.2-.66,13.27,3.28,15,4.76,5.3,4.41-7.85,31.22-12.26,37.83-4.14,6.4-23.67,19.27-32.5,23.87l-4.22-7.05c3.58-1.77,23.77-20.18,25.91-22C396.7,263.16,399.44,250.19,400.47,243.44Z"/>
            <path class="cls-33" d="M457.05,424.63c.68-.93,1.48-2.36,1.48-2.36l4.42,2s.38.44.27,1.79a3.5,3.5,0,0,1,0,2.82c-.38.78-3,1.72-4.29,2.64-1.06.75-2.88,1-5,1.09s-4.72-.81-4.82-2C449,428.21,455.76,426.44,457.05,424.63Z"/>
            <path class="cls-8" d="M457.62,422.08l5.64.62s.07,2,0,3.38c0,0-2.57,1.15-3.52.72a7.21,7.21,0,0,1-2.65-2.16A3,3,0,0,0,457.62,422.08Z"/>
            <path class="cls-4" d="M464.26,284.82s-2.79,52.58-4.41,78c-1.86,29.44,3.83,60,3.83,60-1.89,2.45-6.19.53-6.26.31a365.82,365.82,0,0,1-15.15-58.84c-5.87-36.23-6.77-76.63-6.59-79.59C439.18,285.94,454.11,286.29,464.26,284.82Z"/>
            <path class="cls-8" d="M422.57,204.76c-.05,2.88,1.76,10.64,2.92,12-1.67,5.49-10.17,6.55-11.15,3.56.94-3.47-1.26-9.42-1.35-10C415.12,210.38,421.93,205.37,422.57,204.76Z"/>
            <path class="cls-8" d="M413.58,195.58c4.17-.25,7.12,3,7.37,7.16,0,0,.25,4.29.25,4.29.18,3.12-4.33,8.3-7.08,7.89-6.5-1-8.56-12.66-8.42-14C406.09,197.18,409.7,195.81,413.58,195.58Z"/>
            <path class="cls-34" d="M405.92,224.5c1.26-1,8.42-4.18,8.42-4.18s2.05,2,4.1,1.59c3-.6,7.05-5.15,7.05-5.15s6.74.61,8.91,1.19c19.46,5.13,31.3,28,31.3,84.16-1,.19-3.54.41-4.74.72l-6-18,1.18,19.33c-18.19,9.78-31.17,6.09-44.66.62,1.83-30-6.58-60.72-7-64.08C403.67,234.87,401.06,228.22,405.92,224.5Z"/>
            <path class="cls-34" d="M418.44,221.91c3-.6,7.05-5.15,7.05-5.15l4.54.32a19.55,19.55,0,0,1,4.37.87c-7.92,5.16-19.37,18-19.37,18s-7.73-5.52-8.95-11.57c1.56-1.06,8.26-4.07,8.26-4.07S416.39,222.33,418.44,221.91Z"/>
            <path class="cls-33" d="M421.73,188.44c6.26,4.93,6,15,1.21,19.84,0,0-1.24-6.49-3.5-9.3-16.84,4.8-18.86.5-18.91-1.33C400.29,189.4,413.56,182,421.73,188.44Z"/>
            <path class="cls-8" d="M421.46,201c1.07.09,2,1.61,1.89,2.68a3.72,3.72,0,0,1-2.47,2.65,49.13,49.13,0,0,1-1.22-4.95A3.55,3.55,0,0,1,421.46,201Z"/>
            <path class="cls-8" d="M394.63,288.68a10.94,10.94,0,0,0,3.28-.29c-1.13.48-.73,1.13-1.83,1.8-.5.13-2.69-.5-2.66-1C393.41,288.36,394,288.61,394.63,288.68Z"/>
            <path class="cls-8" d="M391.13,292.78c.19-.14,2.93-2.22,4.24-3a27.37,27.37,0,0,1,3.39-1.76,27.51,27.51,0,0,1,3.57,4.2c-1.83,1.15-7.82,4.25-7.94,4.35-2.1,1.68-3.13,1.39-3.09.62,0-.18-1.75.46-1.87-.28a.87.87,0,0,1-.83-.51,2.91,2.91,0,0,1,.22-1.72A19.35,19.35,0,0,1,391.13,292.78Z"/>
            <path class="cls-34" d="M422.61,263.82a19.74,19.74,0,0,1,.41-2.24c1.07-4.53,1.82-11.56,2.54-18.35s1.39-13.14,2.34-16.14a1.61,1.61,0,0,1,1-1c2.16-.76,13.4,2.67,15.25,4.06,5.5,4.17-6.42,31.55-10.51,38.34-3.85,6.6-22.78,20.36-31.38,25.34L397.73,287c3.49-1.93,11.16-9.6,17.32-15.75C417.88,268.41,420.55,265.74,422.61,263.82Z"/>
          </g>
        </g>
      </g>
    </g>
  </g>
</svg>
